<mxfile host="app.diagrams.net" modified="2021-06-17T03:48:10.330Z" agent="5.0 (Windows NT 10.0; Win64; x64) AppleWebKit/537.36 (KHTML, like Gecko) Chrome/91.0.4472.106 Safari/537.36" etag="3Zcmrs3YUag5s4pD_x1G" version="14.7.6" type="github" pages="2">
  <diagram id="jHfspsVnBzj03lUuc0SU" name="Page-1">
    <mxGraphModel dx="938" dy="514" grid="1" gridSize="10" guides="1" tooltips="1" connect="1" arrows="1" fold="1" page="1" pageScale="1" pageWidth="827" pageHeight="1169" math="0" shadow="0">
      <root>
        <mxCell id="0" />
        <mxCell id="1" parent="0" />
        <mxCell id="k2Oq-gWDBLy8hJGFCEYH-21" value="" style="shape=crossbar;whiteSpace=wrap;html=1;rounded=1;fontColor=#ffffff;fillColor=#FF0000;strokeColor=#FF0000;" vertex="1" parent="1">
          <mxGeometry x="359" y="117" width="140" height="20" as="geometry" />
        </mxCell>
        <mxCell id="k2Oq-gWDBLy8hJGFCEYH-22" value="" style="shape=crossbar;whiteSpace=wrap;html=1;rounded=1;" vertex="1" parent="1">
          <mxGeometry x="501" y="117" width="139" height="20" as="geometry" />
        </mxCell>
        <mxCell id="k2Oq-gWDBLy8hJGFCEYH-23" value="" style="shape=crossbar;whiteSpace=wrap;html=1;rounded=1;" vertex="1" parent="1">
          <mxGeometry x="226" y="117" width="130" height="20" as="geometry" />
        </mxCell>
        <mxCell id="k2Oq-gWDBLy8hJGFCEYH-25" value="31 ~ 32768 Bytes" style="text;html=1;strokeColor=none;fillColor=none;align=center;verticalAlign=middle;whiteSpace=wrap;rounded=0;fontStyle=1" vertex="1" parent="1">
          <mxGeometry x="530" y="102" width="100" height="20" as="geometry" />
        </mxCell>
        <mxCell id="k2Oq-gWDBLy8hJGFCEYH-26" value="&lt;font color=&quot;#ff0000&quot;&gt;20 ~ 30 Bytes&lt;/font&gt;" style="text;html=1;strokeColor=none;fillColor=none;align=center;verticalAlign=middle;whiteSpace=wrap;rounded=0;fontStyle=1" vertex="1" parent="1">
          <mxGeometry x="390" y="102" width="90" height="20" as="geometry" />
        </mxCell>
        <mxCell id="k2Oq-gWDBLy8hJGFCEYH-27" value="0 ~ 19 Bytes" style="text;html=1;strokeColor=none;fillColor=none;align=center;verticalAlign=middle;whiteSpace=wrap;rounded=0;fontStyle=1" vertex="1" parent="1">
          <mxGeometry x="250" y="102" width="100" height="20" as="geometry" />
        </mxCell>
        <mxCell id="k2Oq-gWDBLy8hJGFCEYH-62" value="" style="shape=curlyBracket;whiteSpace=wrap;html=1;rounded=1;labelBackgroundColor=none;fillColor=#BDBDBD;fontColor=#000000;align=left;rotation=-90;" vertex="1" parent="1">
          <mxGeometry x="421.13" y="-45.62" width="25" height="416.25" as="geometry" />
        </mxCell>
        <mxCell id="k2Oq-gWDBLy8hJGFCEYH-73" value="Block:递增读写测试" style="text;html=1;strokeColor=none;fillColor=none;align=left;verticalAlign=middle;whiteSpace=wrap;rounded=0;labelBackgroundColor=none;" vertex="1" parent="1">
          <mxGeometry x="375" y="180" width="120" height="20" as="geometry" />
        </mxCell>
      </root>
    </mxGraphModel>
  </diagram>
  <diagram id="ZxdbFwDAqNGpEtS3SUuk" name="Page-2">
    <mxGraphModel dx="2187" dy="746" grid="1" gridSize="10" guides="1" tooltips="1" connect="1" arrows="1" fold="1" page="1" pageScale="1" pageWidth="827" pageHeight="1169" math="0" shadow="0">
      <root>
        <mxCell id="E16CZWO3FakMvKq9kXzB-0" />
        <mxCell id="E16CZWO3FakMvKq9kXzB-1" parent="E16CZWO3FakMvKq9kXzB-0" />
        <mxCell id="E16CZWO3FakMvKq9kXzB-26" style="edgeStyle=orthogonalEdgeStyle;rounded=0;orthogonalLoop=1;jettySize=auto;html=1;entryX=0.5;entryY=0.013;entryDx=0;entryDy=0;entryPerimeter=0;endArrow=none;endFill=0;dashed=1;" edge="1" parent="E16CZWO3FakMvKq9kXzB-1" source="E16CZWO3FakMvKq9kXzB-3" target="E16CZWO3FakMvKq9kXzB-25">
          <mxGeometry relative="1" as="geometry" />
        </mxCell>
        <mxCell id="E16CZWO3FakMvKq9kXzB-3" value="" style="html=1;points=[];perimeter=orthogonalPerimeter;strokeColor=#000000;fillColor=none;" vertex="1" parent="E16CZWO3FakMvKq9kXzB-1">
          <mxGeometry x="105" y="180" width="10" height="110" as="geometry" />
        </mxCell>
        <mxCell id="E16CZWO3FakMvKq9kXzB-9" value="Title" style="text;align=center;fontStyle=1;verticalAlign=middle;spacingLeft=3;spacingRight=3;strokeColor=none;rotatable=0;points=[[0,0.5],[1,0.5]];portConstraint=eastwest;" vertex="1" parent="E16CZWO3FakMvKq9kXzB-1">
          <mxGeometry x="325" y="320" width="80" height="26" as="geometry" />
        </mxCell>
        <mxCell id="E16CZWO3FakMvKq9kXzB-15" value="" style="html=1;points=[];perimeter=orthogonalPerimeter;strokeColor=#000000;fillColor=none;" vertex="1" parent="E16CZWO3FakMvKq9kXzB-1">
          <mxGeometry x="325" y="290" width="10" height="80" as="geometry" />
        </mxCell>
        <mxCell id="E16CZWO3FakMvKq9kXzB-16" value="dispatch" style="html=1;verticalAlign=bottom;endArrow=block;entryX=0;entryY=0;" edge="1" target="E16CZWO3FakMvKq9kXzB-15" parent="E16CZWO3FakMvKq9kXzB-1">
          <mxGeometry relative="1" as="geometry">
            <mxPoint x="120" y="290" as="sourcePoint" />
          </mxGeometry>
        </mxCell>
        <mxCell id="E16CZWO3FakMvKq9kXzB-17" value="return" style="html=1;verticalAlign=bottom;endArrow=open;dashed=1;endSize=8;exitX=0;exitY=0.95;" edge="1" source="E16CZWO3FakMvKq9kXzB-15" parent="E16CZWO3FakMvKq9kXzB-1">
          <mxGeometry relative="1" as="geometry">
            <mxPoint x="120" y="366" as="targetPoint" />
          </mxGeometry>
        </mxCell>
        <mxCell id="E16CZWO3FakMvKq9kXzB-25" value="" style="html=1;points=[];perimeter=orthogonalPerimeter;strokeColor=#000000;fillColor=none;" vertex="1" parent="E16CZWO3FakMvKq9kXzB-1">
          <mxGeometry x="105" y="360" width="10" height="80" as="geometry" />
        </mxCell>
        <mxCell id="E16CZWO3FakMvKq9kXzB-27" value="TxRx:thread" style="shape=umlLifeline;perimeter=lifelinePerimeter;whiteSpace=wrap;html=1;container=1;collapsible=0;recursiveResize=0;outlineConnect=0;strokeColor=#000000;fillColor=none;" vertex="1" parent="E16CZWO3FakMvKq9kXzB-1">
          <mxGeometry x="60" width="100" height="180" as="geometry" />
        </mxCell>
        <mxCell id="E16CZWO3FakMvKq9kXzB-28" value="ISR" style="shape=umlLifeline;perimeter=lifelinePerimeter;whiteSpace=wrap;html=1;container=1;collapsible=0;recursiveResize=0;outlineConnect=0;strokeColor=#000000;fillColor=none;" vertex="1" parent="E16CZWO3FakMvKq9kXzB-1">
          <mxGeometry x="280" width="100" height="290" as="geometry" />
        </mxCell>
        <mxCell id="E16CZWO3FakMvKq9kXzB-29" value="completion:Object" style="shape=umlLifeline;perimeter=lifelinePerimeter;whiteSpace=wrap;html=1;container=1;collapsible=0;recursiveResize=0;outlineConnect=0;strokeColor=#000000;fillColor=none;" vertex="1" parent="E16CZWO3FakMvKq9kXzB-1">
          <mxGeometry x="480" width="100" height="290" as="geometry" />
        </mxCell>
        <mxCell id="E16CZWO3FakMvKq9kXzB-30" value="wait_for_completion_interruptible" style="text;align=center;fontStyle=1;verticalAlign=middle;spacingLeft=3;spacingRight=3;strokeColor=none;rotatable=0;points=[[0,0.5],[1,0.5]];portConstraint=eastwest;fillColor=none;" vertex="1" parent="E16CZWO3FakMvKq9kXzB-1">
          <mxGeometry x="-110" y="370" width="215" height="26" as="geometry" />
        </mxCell>
        <mxCell id="E16CZWO3FakMvKq9kXzB-31" value="" style="html=1;points=[];perimeter=orthogonalPerimeter;strokeColor=#000000;fillColor=none;" vertex="1" parent="E16CZWO3FakMvKq9kXzB-1">
          <mxGeometry x="520" y="380" width="10" height="80" as="geometry" />
        </mxCell>
        <mxCell id="E16CZWO3FakMvKq9kXzB-32" value="dispatch" style="html=1;verticalAlign=bottom;startArrow=oval;endArrow=block;startSize=8;dashed=1;" edge="1" target="E16CZWO3FakMvKq9kXzB-31" parent="E16CZWO3FakMvKq9kXzB-1">
          <mxGeometry relative="1" as="geometry">
            <mxPoint x="330" y="380" as="sourcePoint" />
          </mxGeometry>
        </mxCell>
      </root>
    </mxGraphModel>
  </diagram>
</mxfile>
